<svg width="27" height="27" viewBox="0 0 27 27" fill="none" xmlns="http://www.w3.org/2000/svg">
<g clip-path="url(#clip0_78_2876)">
<path fill-rule="evenodd" clip-rule="evenodd" d="M4.5 11.8125C4.5 6.606 8.45775 2.25 13.5 2.25C18.5422 2.25 22.5 6.606 22.5 11.8125C22.5 16.6252 19.1182 20.7113 14.625 21.3019V23.625C14.625 23.9234 14.5065 24.2095 14.2955 24.4205C14.0845 24.6315 13.7984 24.75 13.5 24.75C13.2016 24.75 12.9155 24.6315 12.7045 24.4205C12.4935 24.2095 12.375 23.9234 12.375 23.625V21.3019C7.88175 20.7113 4.5 16.6252 4.5 11.8125ZM13.5 19.125C13.8825 19.125 14.2583 19.0901 14.625 19.0238V16.11L17.2283 12.4661C17.3141 12.3459 17.3754 12.2099 17.4087 12.0659C17.442 11.922 17.4466 11.7729 17.4222 11.6271C17.3979 11.4814 17.3451 11.3419 17.2668 11.2166C17.1886 11.0913 17.0864 10.9826 16.9661 10.8967C16.8459 10.8109 16.7099 10.7496 16.5659 10.7163C16.422 10.683 16.2729 10.6784 16.1271 10.7028C15.9814 10.7271 15.8419 10.7799 15.7166 10.8582C15.5913 10.9364 15.4826 11.0386 15.3967 11.1589L13.356 14.0164L12.0454 12.7046C11.8332 12.4997 11.549 12.3863 11.254 12.3889C10.9591 12.3914 10.6769 12.5097 10.4683 12.7183C10.2597 12.9269 10.1414 13.2091 10.1389 13.504C10.1363 13.799 10.2497 14.0832 10.4546 14.2954L12.375 16.2157V19.0226C12.7417 19.0901 13.1175 19.125 13.5 19.125Z" fill="#13C296"/>
</g>
<defs>
<clipPath id="clip0_78_2876">
<rect width="27" height="27" fill="white"/>
</clipPath>
</defs>
</svg>
