<svg width="24" height="24" viewBox="0 0 24 24" fill="none" xmlns="http://www.w3.org/2000/svg">
<path d="M3.17152 7.62834C5.26792 5.82834 6.92392 4.40514 11.4179 6.94434C13.5767 8.16354 15.3179 8.62434 16.7663 8.62194C19.3043 8.62194 20.9495 7.21074 22.3715 5.99034C22.6156 5.77801 22.7674 5.47897 22.7947 5.15661C22.822 4.83426 22.7228 4.51394 22.5179 4.26354C22.418 4.14067 22.2944 4.03909 22.1546 3.9648C22.0147 3.89052 21.8614 3.84504 21.7036 3.83105C21.5459 3.81707 21.3869 3.83486 21.2362 3.88338C21.0854 3.9319 20.9459 4.01017 20.8259 4.11354C18.7307 5.91594 17.0735 7.33914 12.5795 4.79754C6.64192 1.44594 3.86032 3.83394 1.62592 5.75394C1.38202 5.96644 1.23046 6.26557 1.20335 6.58791C1.17625 6.91026 1.27573 7.2305 1.48072 7.48074C1.58071 7.6034 1.70429 7.70476 1.84414 7.77881C1.98399 7.85287 2.13728 7.89811 2.29493 7.91187C2.45258 7.92564 2.61139 7.90763 2.76195 7.85893C2.91252 7.81023 3.05179 7.73182 3.17152 7.62834ZM20.8259 10.2419C18.7307 12.0419 17.0735 13.4675 12.5795 10.9259C6.64192 7.57194 3.86032 9.96114 1.62592 11.8799C1.38202 12.0924 1.23046 12.3916 1.20335 12.7139C1.17625 13.0363 1.27573 13.3565 1.48072 13.6067C1.58054 13.7296 1.70398 13.8311 1.84375 13.9054C1.98351 13.9797 2.13676 14.0252 2.29441 14.0391C2.45207 14.0531 2.61093 14.0353 2.76159 13.9868C2.91225 13.9383 3.05164 13.8601 3.17152 13.7567C5.26792 11.9555 6.92392 10.5323 11.4179 13.0703C13.5767 14.2919 15.3179 14.7503 16.7663 14.7503C19.3043 14.7503 20.9495 13.3391 22.3715 12.1163C22.6158 11.9044 22.7677 11.6055 22.7951 11.2833C22.8224 10.961 22.723 10.6408 22.5179 10.3907C22.418 10.2678 22.2944 10.1662 22.1545 10.0919C22.0146 10.0177 21.8612 9.97224 21.7034 9.95836C21.5456 9.94449 21.3866 9.96244 21.2359 10.0111C21.0852 10.0599 20.9458 10.1383 20.8259 10.2419ZM20.8259 16.3691C18.7307 18.1715 17.0735 19.5947 12.5795 17.0555C6.64192 13.7015 3.86032 16.0895 1.62592 18.0095C1.38202 18.222 1.23046 18.5212 1.20335 18.8435C1.17625 19.1659 1.27573 19.4861 1.48072 19.7363C1.58061 19.8591 1.70415 19.9606 1.844 20.0348C1.98386 20.1089 2.13719 20.1542 2.29488 20.168C2.45258 20.1818 2.61143 20.1637 2.76202 20.1149C2.91261 20.0661 3.05187 19.9876 3.17152 19.8839C5.26792 18.0839 6.92392 16.6619 11.4179 19.1999C13.5767 20.4191 15.3179 20.8799 16.7663 20.8799C19.3043 20.8799 20.9495 19.4663 22.3715 18.2459C22.6156 18.0336 22.7674 17.7346 22.7947 17.4122C22.822 17.0899 22.7228 16.7695 22.5179 16.5191C22.4179 16.3964 22.2943 16.295 22.1544 16.2208C22.0146 16.1466 21.8613 16.1012 21.7036 16.0872C21.5459 16.0732 21.387 16.0909 21.2362 16.1394C21.0855 16.1878 20.946 16.2659 20.8259 16.3691Z" fill="black"/>
</svg>
