<svg width="24" height="24" viewBox="0 0 24 24" fill="none" xmlns="http://www.w3.org/2000/svg">
<path d="M12 4.5C11.5027 4.5 11.0258 4.69754 10.6742 5.04917C10.3225 5.40081 10.125 5.87772 10.125 6.375V13.9785L9.883 14.201C9.42025 14.6271 9.09685 15.1829 8.95511 15.7958C8.81338 16.4087 8.8599 17.05 9.08859 17.636C9.31729 18.222 9.7175 18.7254 10.2369 19.0802C10.7563 19.4351 11.3707 19.6249 11.9998 19.6249C12.6288 19.6249 13.2432 19.4351 13.7626 19.0802C14.282 18.7254 14.6822 18.222 14.9109 17.636C15.1396 17.05 15.1861 16.4087 15.0444 15.7958C14.9027 15.1829 14.5793 14.6271 14.1165 14.201L13.875 13.9785V6.375C13.875 5.87772 13.6775 5.40081 13.3258 5.04917C12.9742 4.69754 12.4973 4.5 12 4.5ZM8.625 6.375C8.625 5.47989 8.98058 4.62145 9.61352 3.98851C10.2465 3.35558 11.1049 3 12 3C12.8951 3 13.7536 3.35558 14.3865 3.98851C15.0194 4.62145 15.375 5.47989 15.375 6.375V13.3375C15.9917 13.9957 16.4025 14.8198 16.5568 15.7084C16.7111 16.597 16.6023 17.5114 16.2436 18.3389C15.8849 19.1665 15.2921 19.8711 14.5382 20.3661C13.7842 20.8611 12.9019 21.1248 12 21.1248C11.0981 21.1248 10.2158 20.8611 9.46185 20.3661C8.70787 19.8711 8.11507 19.1665 7.75641 18.3389C7.39775 17.5114 7.28888 16.597 7.44321 15.7084C7.59754 14.8198 8.00832 13.9957 8.625 13.3375V6.375ZM14 16.5C13.9998 16.8628 13.901 17.2188 13.714 17.5297C13.527 17.8407 13.2589 18.0949 12.9385 18.2652C12.6181 18.4354 12.2574 18.5153 11.8951 18.4963C11.5327 18.4773 11.1824 18.36 10.8816 18.1571C10.5808 17.9542 10.3408 17.6733 10.1875 17.3444C10.0341 17.0156 9.97306 16.6513 10.0109 16.2904C10.0488 15.9295 10.1841 15.5858 10.4024 15.2959C10.6206 15.0061 10.9136 14.7811 11.25 14.645V9.25C11.25 9.05109 11.329 8.86032 11.4697 8.71967C11.6103 8.57902 11.8011 8.5 12 8.5C12.1989 8.5 12.3897 8.57902 12.5303 8.71967C12.671 8.86032 12.75 9.05109 12.75 9.25V14.645C13.1195 14.7945 13.4359 15.0509 13.6586 15.3814C13.8813 15.7119 14.0002 16.1014 14 16.5Z" fill="black"/>
</svg>
